<svg xmlns="http://www.w3.org/2000/svg" width="96" height="16" viewBox="0 0 96 16">
  <g id="Star" transform="translate(-330 -7355)">
    <g id="carbon:star-filled" transform="translate(330 7355)">
      <rect id="carbon:star-filled-2" data-name="carbon:star-filled" width="16" height="16" fill="none"/>
      <path id="Vector" d="M9.635,4.61l5.085.74L11.04,8.935,11.91,14,7.36,11.61,2.81,14l.87-5.065L0,5.345,5.085,4.61,7.36,0Z" transform="translate(0.641 1)" fill="#f94d1c"/>
    </g>
    <g id="carbon:star-filled-3" data-name="carbon:star-filled" transform="translate(350 7355)">
      <rect id="carbon:star-filled-4" data-name="carbon:star-filled" width="16" height="16" fill="none"/>
      <path id="Vector-2" data-name="Vector" d="M9.635,4.61l5.085.74L11.04,8.935,11.91,14,7.36,11.61,2.81,14l.87-5.065L0,5.345,5.085,4.61,7.36,0Z" transform="translate(0.641 1)" fill="#f94d1c"/>
    </g>
    <g id="carbon:star-filled-5" data-name="carbon:star-filled" transform="translate(370 7355)">
      <rect id="carbon:star-filled-6" data-name="carbon:star-filled" width="16" height="16" fill="none"/>
      <path id="Vector-3" data-name="Vector" d="M9.635,4.61l5.085.74L11.04,8.935,11.91,14,7.36,11.61,2.81,14l.87-5.065L0,5.345,5.085,4.61,7.36,0Z" transform="translate(0.641 1)" fill="#f94d1c"/>
    </g>
    <g id="carbon:star-filled-7" data-name="carbon:star-filled" transform="translate(390 7355)">
      <rect id="carbon:star-filled-8" data-name="carbon:star-filled" width="16" height="16" fill="none"/>
      <path id="Vector-4" data-name="Vector" d="M9.635,4.61l5.085.74L11.04,8.935,11.91,14,7.36,11.61,2.81,14l.87-5.065L0,5.345,5.085,4.61,7.36,0Z" transform="translate(0.641 1)" fill="#f94d1c"/>
    </g>
    <g id="carbon:star-filled-9" data-name="carbon:star-filled" transform="translate(410 7355)">
      <rect id="carbon:star-filled-10" data-name="carbon:star-filled" width="16" height="16" fill="none"/>
      <path id="Vector-5" data-name="Vector" d="M9.635,4.61l5.085.74L11.04,8.935,11.91,14,7.36,11.61,2.81,14l.87-5.065L0,5.345,5.085,4.61,7.36,0Z" transform="translate(0.641 1)" fill="#f94d1c"/>
    </g>
  </g>
</svg>
